<svg width="558" height="149" viewBox="0 0 558 149" fill="none" xmlns="http://www.w3.org/2000/svg">
<g clip-path="url(#clip0_437_130)">
<path fill-rule="evenodd" clip-rule="evenodd" d="M81.8882 20H59.5588C55.8007 20 52.2614 21.9884 50.0046 25.3885L21.2129 68.7053C18.2403 73.1592 21.0539 79.5519 25.995 79.5519H54.2896L86.6702 30.8466C89.6429 26.3926 86.8293 20 81.8882 20ZM82.614 79.5618H54.3194L28.5302 118.007C25.5575 122.461 28.3711 128.854 33.3122 128.854H55.6417C59.3897 128.854 62.9291 126.855 65.1958 123.465L87.396 90.4084C90.3686 85.9544 87.5551 79.5618 82.614 79.5618Z" fill="#FF6600"/>
<path fill-rule="evenodd" clip-rule="evenodd" d="M87.3861 69.2918H115.681H115.691L141.48 30.8466C144.452 26.3926 141.639 20 136.698 20H114.368C110.61 20 107.071 21.9884 104.804 25.3885L82.604 58.4452C79.6314 62.8992 82.445 69.2918 87.3861 69.2918ZM88.1119 128.854H110.441L110.451 128.864C114.199 128.864 117.739 126.865 120.005 123.475L148.787 80.1483C151.76 75.6944 148.946 69.3018 144.005 69.3018H115.711L83.3298 118.007C80.3572 122.461 83.1707 128.854 88.1119 128.854Z" fill="#EDA737"/>
</g>
<g clip-path="url(#clip1_437_130)">
<path d="M276.308 88.6506C280.789 67.1964 300.12 51.3176 321.821 51.3176C343.521 51.3176 356.292 67.2127 351.811 88.6506C347.33 110.105 327.998 126 306.234 126C284.469 126 271.827 110.105 276.308 88.6506ZM329.118 88.6506C331.103 79.1136 326.126 72.3969 317.404 72.3969C308.682 72.3969 300.969 79.1136 298.984 88.6506C297 98.1877 301.977 104.904 310.619 104.904C319.26 104.904 327.118 98.1877 329.102 88.6506H329.118Z" fill="black"/>
<path d="M353.812 124.109L373.735 26.3094H399.628L379.706 124.109H353.812Z" fill="black"/>
<path d="M454.2 73.2773H433.636L429.315 94.0142C427.618 102.182 431.299 104.676 436.9 104.921C439.669 105.035 442.069 104.399 445.974 102.492C446.822 109.795 448.023 114.719 451.143 120.131C443.654 124.761 438.725 126.016 427.538 126.016C408.895 126.016 402.813 114.67 406.526 96.9161L411.455 73.2936H398.477L402.653 53.2902H415.632L419.569 35.4062H441.765L437.829 53.2902H457.721L454.216 73.2936L454.2 73.2773Z" fill="black"/>
<path d="M456.36 88.5854C460.697 67.7833 477.885 51.3176 496.528 51.3176C505.89 51.3176 511.427 55.3607 514.452 60.9199L516.052 53.2576H537.529L522.742 124.109H501.265L502.866 116.447C497.521 122.006 490.319 125.984 480.877 125.984C462.297 125.984 451.991 109.518 456.36 88.5691V88.5854ZM508.883 88.6506C510.835 79.2603 506.114 72.3969 497.393 72.3969C488.671 72.3969 481.117 79.4071 479.181 88.6506C477.261 97.8942 481.741 104.904 490.607 104.904C499.473 104.904 506.931 98.041 508.883 88.6506Z" fill="black"/>
<path d="M180 124.109L201.092 23H243.773C268.866 23 279.828 33.0424 275.956 51.5948C273.875 61.5557 266.498 69.3647 257.808 72.9676C265.938 76.1466 271.075 84.8196 268.914 95.1391C265.041 113.708 250.318 124.109 225.145 124.109H180ZM207.894 103.894H228.17C237.324 103.894 243.213 101.155 244.797 93.5578C246.334 86.189 241.613 83.3686 232.459 83.3686H212.183L207.894 103.877V103.894ZM216.375 63.2349H234.811C243.325 63.2349 249.374 60.708 250.942 53.1925C252.479 45.8237 247.47 43.2968 238.972 43.2968H220.536L216.375 63.2349Z" fill="black"/>
</g>
<defs>
<clipPath id="clip0_437_130">
<rect width="130" height="108.854" fill="white" transform="translate(20 20)"/>
</clipPath>
<clipPath id="clip1_437_130">
<rect width="357.529" height="103" fill="white" transform="translate(180 23)"/>
</clipPath>
</defs>
</svg>
