<svg width="518" height="109" viewBox="0 0 518 109" fill="none" xmlns="http://www.w3.org/2000/svg">
<g clip-path="url(#clip0_533_106)">
<path fill-rule="evenodd" clip-rule="evenodd" d="M61.8882 0H39.5588C35.8007 0 32.2614 1.98838 30.0046 5.3885L1.21293 48.7053C-1.7597 53.1592 1.05386 59.5519 5.99497 59.5519H34.2896L66.6702 10.8466C69.6429 6.39263 66.8293 0 61.8882 0ZM62.614 59.5618H34.3194L8.53016 98.007C5.55753 102.461 8.37109 108.854 13.3122 108.854H35.6417C39.3897 108.854 42.9291 106.855 45.1958 103.465L67.396 70.4084C70.3686 65.9544 67.5551 59.5618 62.614 59.5618Z" fill="#FF6600"/>
<path fill-rule="evenodd" clip-rule="evenodd" d="M67.3861 49.2918H95.6807H95.6906L121.48 10.8466C124.452 6.39263 121.639 0 116.698 0H94.3683C90.6103 0 87.071 1.98838 84.8043 5.3885L62.604 38.4452C59.6314 42.8992 62.445 49.2918 67.3861 49.2918ZM68.1119 108.854H90.4413L90.4513 108.864C94.1993 108.864 97.7386 106.865 100.005 103.475L128.787 60.1483C131.76 55.6944 128.946 49.3018 124.005 49.3018H95.7105L63.3298 98.007C60.3572 102.461 63.1707 108.854 68.1119 108.854Z" fill="#EDA737"/>
</g>
<g clip-path="url(#clip1_533_106)">
<path d="M256.308 68.6506C260.789 47.1964 280.12 31.3176 301.821 31.3176C323.521 31.3176 336.292 47.2127 331.811 68.6506C327.33 90.1049 307.998 106 286.234 106C264.469 106 251.827 90.1049 256.308 68.6506ZM309.118 68.6506C311.103 59.1136 306.126 52.3969 297.404 52.3969C288.682 52.3969 280.969 59.1136 278.984 68.6506C277 78.1877 281.977 84.9044 290.619 84.9044C299.26 84.9044 307.118 78.1877 309.102 68.6506H309.118Z" fill="black"/>
<path d="M333.812 104.109L353.735 6.30945H379.628L359.706 104.109H333.812Z" fill="black"/>
<path d="M434.2 53.2773H413.636L409.315 74.0142C407.618 82.1818 411.299 84.6761 416.9 84.9207C419.669 85.0348 422.069 84.399 425.974 82.4916C426.822 89.7951 428.023 94.7185 431.143 100.131C423.654 104.761 418.725 106.016 407.538 106.016C388.895 106.016 382.813 94.6696 386.526 76.9161L391.455 53.2936H378.477L382.653 33.2902H395.632L399.569 15.4062H421.765L417.829 33.2902H437.721L434.216 53.2936L434.2 53.2773Z" fill="black"/>
<path d="M436.36 68.5854C440.697 47.7833 457.885 31.3176 476.528 31.3176C485.89 31.3176 491.427 35.3607 494.452 40.9199L496.052 33.2576H517.529L502.742 104.109H481.265L482.866 96.4466C477.521 102.006 470.319 105.984 460.877 105.984C442.297 105.984 431.991 89.518 436.36 68.5691V68.5854ZM488.883 68.6506C490.835 59.2603 486.114 52.3969 477.393 52.3969C468.671 52.3969 461.117 59.4071 459.181 68.6506C457.261 77.8942 461.741 84.9044 470.607 84.9044C479.473 84.9044 486.931 78.041 488.883 68.6506Z" fill="black"/>
<path d="M160 104.109L181.092 3H223.773C248.866 3 259.828 13.0424 255.956 31.5948C253.875 41.5557 246.498 49.3647 237.808 52.9676C245.938 56.1466 251.075 64.8196 248.914 75.1391C245.041 93.7078 230.318 104.109 205.145 104.109H160ZM187.894 83.8936H208.17C217.324 83.8936 223.213 81.1548 224.797 73.5578C226.334 66.189 221.613 63.3686 212.459 63.3686H192.183L187.894 83.8773V83.8936ZM196.375 43.2349H214.811C223.325 43.2349 229.374 40.708 230.942 33.1925C232.479 25.8237 227.47 23.2968 218.972 23.2968H200.536L196.375 43.2349Z" fill="black"/>
</g>
<defs>
<clipPath id="clip0_533_106">
<rect width="130" height="108.854" fill="white"/>
</clipPath>
<clipPath id="clip1_533_106">
<rect width="357.529" height="103" fill="white" transform="translate(160 3)"/>
</clipPath>
</defs>
</svg>
